<svg width="212" height="59" viewBox="0 0 212 59" fill="none" xmlns="http://www.w3.org/2000/svg">
<path d="M1 35.8868C1.01736 35.5738 1.26033 35.313 1.59008 35.2957H5.28673C5.59912 35.313 5.85945 35.5565 5.87681 35.8868V56.369C5.85945 56.6819 5.61648 56.9427 5.28673 56.9601H1.59008C1.27768 56.9427 1.01736 56.6993 1 56.369V35.8868Z" fill="white"/>
<path d="M11.1528 35.5564C11.1701 35.2434 11.4304 35 11.7428 35H12.5065L24.8286 46.8755H24.8633V35.8868C24.8633 35.5564 25.1237 35.2956 25.4534 35.2956H29.1501C29.4625 35.313 29.7228 35.5564 29.7401 35.8868V56.6993C29.7228 57.0122 29.4625 57.2557 29.1501 57.2557H28.6641C28.5253 57.2383 28.3864 57.1861 28.265 57.0992L16.0643 44.8238H16.0296V56.3689C16.0296 56.6993 15.7692 56.9601 15.4395 56.9601H11.7775C11.4651 56.9427 11.2048 56.6993 11.1875 56.3689L11.1528 35.5564Z" fill="white"/>
<path d="M44.6309 35C47.7202 35 50.011 35.9563 52.0938 37.8689C52.3367 38.0602 52.3714 38.4253 52.1805 38.6861C52.1632 38.7035 52.1457 38.7209 52.1284 38.7383L49.716 41.2594C49.5077 41.4681 49.1607 41.4681 48.9524 41.2594C47.8069 40.251 46.3144 39.6772 44.7871 39.6772C41.2987 39.6772 38.7302 42.5808 38.7302 46.0409C38.7302 49.4836 41.3336 52.3177 44.8046 52.3177C46.3145 52.3177 47.7722 51.7961 48.935 50.8398C49.178 50.6485 49.5077 50.6659 49.7334 50.8745L52.1457 53.4305C52.354 53.6739 52.3366 54.039 52.111 54.2651C50.0978 56.2124 47.4078 57.2904 44.6136 57.273C38.4699 57.273 33.5063 52.2829 33.5063 46.1452C33.5063 40.0075 38.4872 35 44.6309 35Z" fill="white"/>
<path d="M55.8252 35.8868C55.8252 35.5565 56.0855 35.2957 56.4153 35.2957H60.0945C60.4069 35.313 60.6673 35.5565 60.6846 35.8868V52.4047H68.0259C68.3556 52.4047 68.6159 52.6655 68.6159 52.9958V56.369C68.6159 56.6993 68.3556 56.9601 68.0259 56.9601H56.4153C56.0855 56.9601 55.8252 56.6993 55.8252 56.369V35.8868Z" fill="white"/>
<path d="M71.0454 35.8868C71.0628 35.5738 71.3058 35.313 71.6355 35.2957H75.4363C75.766 35.2957 76.0264 35.5565 76.0264 35.8868V48.4056C76.0264 50.579 77.623 52.3003 79.8272 52.3003C82.0486 52.3003 83.68 50.5616 83.68 48.4056V35.8868C83.68 35.5565 83.9403 35.2957 84.2701 35.2957H88.0709C88.3832 35.313 88.6436 35.5565 88.6609 35.8868V48.6664C88.6609 53.361 84.704 57.2731 79.8272 57.2731C74.9851 57.2731 71.0628 53.3784 71.0628 48.6664L71.0454 35.8868Z" fill="white"/>
<path d="M93.6245 35.8868C93.6245 35.5738 93.8675 35.313 94.1799 35.2957H101.712C107.665 35.2957 112.542 40.1467 112.542 46.0931C112.542 52.0917 107.682 56.9427 101.712 56.9427H94.1799C93.8675 56.9254 93.6245 56.6645 93.6245 56.3516V35.8868ZM101.4 52.3873C104.888 52.3873 107.422 49.6401 107.422 46.1105C107.422 42.6157 104.888 39.8685 101.4 39.8685H98.4319V52.3873H101.4Z" fill="white"/>
<path d="M116.325 35.8868C116.325 35.5565 116.586 35.2957 116.915 35.2957H129.689C130.019 35.2957 130.279 35.5565 130.279 35.8868V39.2599C130.279 39.5903 130.019 39.8511 129.689 39.8511H121.133V43.6937H128.179C128.491 43.7111 128.752 43.9545 128.769 44.2848V47.658C128.769 47.9883 128.509 48.2491 128.179 48.2491H121.133V52.4221H129.689C130.019 52.4221 130.279 52.6829 130.279 53.0132V56.3863C130.279 56.7167 130.019 56.9775 129.689 56.9775H116.915C116.586 56.9775 116.325 56.7167 116.325 56.3863V35.8868Z" fill="white"/>
<path d="M67.1177 10.389C65.8855 9.41533 64.0805 8.89371 61.5467 8.89371C60.4012 8.87632 59.2384 8.98065 58.1103 9.20668C57.2947 9.43271 56.5137 9.79785 55.8368 10.3021C55.2641 10.7368 54.8129 11.3279 54.5352 11.9886C54.2748 12.632 54.136 13.3101 54.1534 14.0056V14.7184C54.0839 14.9097 54.2228 15.0488 54.4137 15.0488H57.5203C57.6591 15.0314 57.7632 14.9271 57.7806 14.788C57.8327 14.0925 58.1103 13.4318 58.5616 12.9102C59.0822 12.319 60.0541 12.006 61.4772 12.006C62.0847 11.9886 62.7095 12.0756 63.2822 12.2668C63.6814 12.4233 64.0632 12.632 64.3756 12.9102C64.8442 13.3796 65.1218 14.0056 65.1565 14.6663V15.5704C65.1565 15.8834 65.0871 16.1963 64.9656 16.4745C64.8615 16.718 64.7053 16.944 64.5144 17.1179C64.3756 17.3091 64.202 17.4482 63.9937 17.5699C63.8549 17.6743 63.6987 17.7612 63.5425 17.8307C63.4731 17.9003 63.2128 17.9698 62.6921 18.1611C62.1715 18.3524 61.7202 18.5436 61.0781 18.7523C60.4359 18.9609 59.7764 19.1348 59.1343 19.3956C58.4922 19.6564 57.9021 19.7781 57.3814 19.9868C56.3575 20.3171 55.5071 21.0126 54.9864 21.9341C54.4484 22.8209 54.1534 23.8293 54.1534 24.8552V26.8721C54.1881 27.4459 54.3096 28.0196 54.4831 28.5587C54.6914 29.2194 55.0732 29.7931 55.5765 30.2452C56.2013 30.8538 56.9475 31.2884 57.7806 31.5493C58.9781 31.9144 60.2277 32.0883 61.4772 32.0709C62.7268 32.123 63.9764 31.9492 65.1739 31.5493C66.007 31.2884 66.7879 30.8364 67.4301 30.2452C67.9507 29.7931 68.3325 29.2194 68.5408 28.5587C68.7491 28.0196 68.8532 27.4459 68.8706 26.8721V14.162C68.8706 12.6841 68.2284 11.3105 67.1177 10.389ZM64.3929 27.9675C63.8723 28.4891 62.831 28.8021 61.4772 28.8021C60.1235 28.8021 59.1517 28.5413 58.631 28.0196C58.0583 27.3242 57.7806 26.4548 57.85 25.5507C57.85 25.0986 57.9194 24.577 58.1798 24.1945C58.388 23.8641 58.6136 23.5511 58.8913 23.2903C59.1517 23.0991 59.5335 22.9078 59.8632 22.6992C60.245 22.5079 60.8351 22.3688 61.2863 22.1775C61.7376 21.9689 62.2235 21.795 62.7095 21.6559C63.2301 21.5342 63.6814 21.3256 64.1326 21.2039C64.3582 21.1343 64.5838 21.03 64.7747 20.8735C65.0177 20.7344 65.1739 20.491 65.226 20.2302L65.1565 25.5507C65.226 26.42 64.9483 27.2894 64.3929 27.9675Z" fill="white"/>
<path d="M50.5431 8.89369H52.6084C52.7472 8.91108 52.8514 9.0154 52.8687 9.1545V9.20666L52.1572 11.9365C52.1572 12.0756 52.0357 12.1277 51.8968 12.1277H50.4737C49.8316 12.1103 49.1894 12.2147 48.5994 12.4581C48.1828 12.6146 47.801 12.858 47.506 13.171C47.2804 13.4144 47.0895 13.6926 46.9853 14.0055C46.9159 14.2837 46.8638 14.5619 46.8465 14.8401V31.7057C46.8638 31.8796 46.725 32.0187 46.5688 32.0361C46.5514 32.0361 46.5514 32.0361 46.5341 32.0361H43.4275C43.2713 32.0187 43.1498 31.8796 43.1672 31.7057V14.1446C43.1672 13.6926 43.2366 13.2231 43.3581 12.7884C43.4796 12.1277 43.8093 11.5192 44.2606 11.0323C44.8853 10.389 45.6316 9.86738 46.4647 9.53702C47.7489 9.03279 49.1547 8.80676 50.5431 8.89369Z" fill="white"/>
<path d="M39.9916 26.0027V26.7851C39.9916 27.2719 39.9222 27.7414 39.8007 28.2109C39.6619 28.8716 39.3495 29.4627 38.8982 29.967C38.2734 30.6103 37.5272 31.1319 36.6941 31.4623C35.3925 31.9317 34.0041 32.1577 32.6157 32.1056C31.2272 32.1404 29.8388 31.9317 28.5372 31.4623C27.7041 31.1493 26.9405 30.6277 26.3331 29.967C25.8819 29.4801 25.5695 28.8716 25.4306 28.2109C25.2918 27.7588 25.2918 27.3067 25.2397 26.8546V9.15446C25.2224 8.98059 25.3612 8.84149 25.5174 8.8241C25.5347 8.8241 25.5347 8.8241 25.5521 8.8241H28.5893C28.7628 8.80672 28.9016 8.94581 28.919 9.11968C28.919 9.13707 28.919 9.13707 28.919 9.15446V25.6375C28.9364 26.0548 28.9711 26.4547 29.0578 26.872C29.162 27.2024 29.3529 27.5154 29.5785 27.7762C29.8735 28.1065 30.2554 28.3499 30.6719 28.489C31.2967 28.6977 31.9562 28.802 32.6157 28.8194C33.2925 28.8368 33.9867 28.7325 34.6289 28.489C35.0454 28.3673 35.4272 28.1413 35.7222 27.8457C35.9826 27.6197 36.1561 27.3241 36.2429 26.9937C36.3817 26.5765 36.4338 26.1418 36.4338 25.6897V9.15446C36.4164 8.99797 36.5379 8.84149 36.6941 8.8241H39.8007C39.9743 8.80672 40.1131 8.94581 40.1304 9.11968C40.1304 9.13707 40.1304 9.13707 40.1304 9.15446L39.9916 26.0027Z" fill="white"/>
<path d="M18.818 0.51307H21.8552C22.0287 0.495683 22.1676 0.634781 22.1849 0.791266C22.1849 0.808653 22.1849 0.82604 22.1849 0.82604V31.7753C22.2023 31.9492 22.0634 32.0883 21.8899 32.1056C21.8725 32.1056 21.8725 32.1056 21.8552 32.1056H18.818C18.6445 32.123 18.5056 31.9839 18.4883 31.8101C18.4883 31.7927 18.4883 31.7927 18.4883 31.7753V0.82604C18.5577 0.634781 18.6792 0.51307 18.818 0.51307Z" fill="white"/>
<path d="M13.6982 10.389C12.466 9.41533 10.661 8.89371 8.12719 8.89371C6.98175 8.87632 5.81895 8.98065 4.69087 9.20668C3.85782 9.39794 3.09419 9.78046 2.43469 10.3021C1.86197 10.7368 1.41074 11.3279 1.13306 11.9886C0.872728 12.632 0.751242 13.3101 0.751242 14.0056V14.788C0.733887 14.9618 0.872728 15.1009 1.02892 15.1183C1.04628 15.1183 1.04628 15.1183 1.06364 15.1183H4.10079C4.23963 15.1009 4.34376 14.9966 4.36112 14.8575C4.41318 14.162 4.69087 13.5013 5.1421 12.9797C5.66276 12.3885 6.63465 12.0756 8.05777 12.0756C8.6652 12.006 9.28999 12.0756 9.88006 12.2668C10.2792 12.4233 10.661 12.632 10.9734 12.9102C11.442 13.3622 11.7197 14.0056 11.7544 14.6663V15.5704C11.7544 15.8834 11.685 16.1963 11.5635 16.4745C11.4594 16.718 11.3032 16.944 11.1123 17.1179C10.9734 17.3091 10.7999 17.4482 10.5916 17.5699C10.4528 17.6743 10.2966 17.7612 10.1404 17.8307C10.071 17.9003 9.81064 17.9698 9.30734 18.1611C8.80404 18.3524 8.33545 18.5436 7.69331 18.7523C7.05117 18.9609 6.40903 19.1348 5.74953 19.3956C5.09004 19.6564 4.49996 19.7781 3.97931 19.9868C2.9727 20.3171 2.10495 21.0126 1.58429 21.9341C1.04628 22.8209 0.751242 23.8293 0.733887 24.8552V26.8547C0.768597 27.4285 0.890084 28.0023 1.06364 28.5413C1.2719 29.202 1.65371 29.7758 2.15701 30.2278C2.7818 30.8364 3.52807 31.2711 4.36112 31.5319C5.55863 31.897 6.8082 32.0709 8.05777 32.0535C9.30734 32.1056 10.5569 31.9318 11.7544 31.5319C12.5875 31.2711 13.3685 30.819 14.028 30.2278C14.5486 29.7758 14.9304 29.202 15.1213 28.5413C15.3296 28.0023 15.4337 27.4285 15.4511 26.8547V14.1446C15.4511 12.6841 14.8089 11.3105 13.6982 10.389ZM11.0429 27.9675C10.5222 28.4891 9.55032 28.8021 8.12719 28.8021C6.70407 28.8021 5.73218 28.5413 5.21152 28.0196C4.6388 27.3242 4.36112 26.4548 4.43054 25.5507C4.43054 25.0812 4.55203 24.6118 4.74293 24.1945C4.9512 23.8641 5.17681 23.5685 5.45449 23.2903C5.71482 23.0991 6.09664 22.9078 6.42638 22.6992C6.8082 22.5079 7.39828 22.3688 7.84951 22.1775C8.30074 21.9689 8.78669 21.795 9.27263 21.6559C9.79329 21.5342 10.2445 21.3256 10.6958 21.2039C10.9214 21.1343 11.147 21.03 11.3379 20.8735C11.5809 20.7344 11.7371 20.491 11.7891 20.2302V25.5507C11.9106 26.4374 11.6156 27.3068 11.0429 27.9675Z" fill="white"/>
</svg>
