<svg width="371" height="431" viewBox="0 0 371 431" fill="none" xmlns="http://www.w3.org/2000/svg">
<path d="M114.719 426.091C67.5368 431.907 27.43 428.36 -5.01518 421.114C-40.9556 413.088 -171.471 348.659 -191.133 317.505C-212.546 283.576 -228.38 244.372 -224.379 204.445C-212.457 85.4541 27.354 -18.5347 178.485 5.47813C374.543 11.7277 371.844 177.07 367.987 175.628C364.589 292.037 267.256 419.756 151.018 425.675C131.403 426.674 117.195 426.091 114.719 426.091Z" stroke="white" stroke-opacity="0.5" stroke-width="4"/>
<path d="M106.495 389.38C68.8584 394.021 36.8641 391.192 10.9804 385.412C-17.7056 379.005 -121.849 327.573 -137.536 302.702C-154.616 275.625 -167.246 244.338 -164.061 212.477C-154.566 117.494 36.783 34.4819 157.371 53.6497C313.798 58.638 308.568 182.107 308.568 189.462C305.856 282.376 228.198 384.333 135.42 389.049C119.788 389.844 108.469 389.38 106.495 389.38Z" stroke="white" stroke-opacity="0.5" stroke-width="4"/>
<path d="M100.447 358.844C68.125 362.825 40.6516 360.395 18.429 355.432C-6.16853 349.94 -95.53 305.856 -108.995 284.539C-123.664 261.314 -134.742 234.521 -131.991 207.185C-124.106 128.846 35.3993 68.0399 138.595 84.4258C272.854 88.7027 271.369 163.948 273.883 187.439C271.555 267.107 204.901 354.496 125.351 358.556C111.894 359.243 102.145 358.844 100.447 358.844Z" stroke="white" stroke-opacity="0.5" stroke-width="4"/>
<path d="M95.3794 334.746C68.5878 338.048 45.814 336.034 27.3915 331.92C6.98902 327.364 -67.1102 290.792 -78.2738 273.107C-90.4329 253.846 -99.6141 231.625 -97.3385 208.957C-90.8145 143.97 41.4433 93.5259 127.009 107.119C238.325 110.666 237.093 173.082 239.178 192.568C237.248 258.649 181.985 331.147 116.001 334.51C104.858 335.077 96.7859 334.746 95.3794 334.746Z" stroke="white" stroke-opacity="0.5" stroke-width="4"/>
<path d="M89.9228 306.855C69.8332 309.343 52.7479 307.836 38.9159 304.745C23.509 301.302 -32.2753 273.632 -40.6679 260.253C-49.7798 245.728 -56.6588 228.97 -54.9928 211.901C-50.1961 162.758 49.3291 124.593 113.705 134.869C197.404 137.55 196.478 184.708 198.046 199.431C196.595 249.343 155.047 304.194 105.205 306.687C96.9418 307.1 90.971 306.855 89.9228 306.855Z" stroke="white" stroke-opacity="0.5" stroke-width="4"/>
<path d="M85.0437 277.613C70.1646 279.435 57.5241 278.313 47.3097 276.035C36.0805 273.53 -4.86589 253.45 -11.0454 243.739C-17.8034 233.12 -22.9082 220.87 -21.6058 208.348C-17.8922 172.644 55.229 144.947 102.548 152.418C164.154 154.369 163.473 188.697 164.626 199.415C163.558 235.774 132.97 275.579 96.666 277.472C90.3905 277.799 85.8309 277.613 85.0437 277.613Z" stroke="white" stroke-opacity="0.5" stroke-width="4"/>
<path d="M80.7131 254.802C71.2049 255.951 63.1375 255.23 56.6324 253.783C49.5893 252.215 23.6915 239.684 19.7696 233.624C15.4441 226.94 12.1736 219.23 13.0578 211.316C15.5504 189.008 61.8442 171.726 91.8195 176.397C130.908 177.619 130.475 199.117 131.207 205.829C130.528 228.62 111.11 253.459 88.3563 254.699C84.2359 254.924 81.2238 254.802 80.7131 254.802Z" stroke="white" stroke-opacity="0.5" stroke-width="4"/>
<path d="M76.0348 237.052C71.0524 237.673 66.8133 237.3 63.3781 236.532C59.5285 235.671 45.6349 228.743 43.5478 225.394C41.2894 221.77 39.5852 217.589 39.9879 213.337C41.1525 201.04 65.9286 191.486 81.9507 194.056C102.769 194.726 102.539 206.516 102.928 210.197C102.568 222.671 92.2347 236.403 79.7779 237.014C77.7526 237.113 76.2931 237.052 76.0348 237.052Z" stroke="white" stroke-opacity="0.5" stroke-width="4"/>
<path d="M73.3937 221.839C71.9945 222.018 70.8 221.915 69.8276 221.697C68.6987 221.444 64.6978 219.389 64.1024 218.396C63.4706 217.343 62.9943 216.127 63.0907 214.902C63.3769 211.267 70.4895 208.434 75.0833 209.193C81.0315 209.39 80.9657 212.858 81.0771 213.94C80.9742 217.602 78.0259 221.674 74.3678 221.832C73.8385 221.855 73.4635 221.839 73.3937 221.839Z" stroke="white" stroke-opacity="0.5" stroke-width="4"/>
<path d="M111.183 405.785C68.4299 411.056 32.0868 407.843 2.68449 401.276C-29.8987 393.999 -148.196 335.581 -166.016 307.332C-185.417 276.576 -199.764 241.037 -196.145 204.848C-185.357 96.9618 31.9985 2.67393 168.976 24.4455C346.664 30.1115 339.745 171.895 340.722 178.708C337.642 284.245 249.429 400.05 144.047 405.409C126.287 406.312 113.426 405.785 111.183 405.785Z" stroke="white" stroke-opacity="0.5" stroke-width="4"/>
</svg>
