<svg width="362" height="431" viewBox="0 0 362 431" fill="none" xmlns="http://www.w3.org/2000/svg">
<path d="M341.719 426.091C294.537 431.907 254.43 428.36 221.985 421.114C186.044 413.088 55.5292 348.659 35.867 317.505C14.4544 283.576 -1.37978 244.372 2.6206 204.445C14.5425 85.4541 254.354 -18.5347 405.485 5.47813C601.543 11.7277 598.844 177.07 594.987 175.628C591.589 292.037 494.256 419.756 378.018 425.675C358.403 426.674 344.195 426.091 341.719 426.091Z" stroke="white" stroke-opacity="0.5" stroke-width="4"/>
<path d="M333.495 389.38C295.858 394.021 263.864 391.192 237.98 385.412C209.294 379.005 105.151 327.573 89.4635 302.702C72.3841 275.625 59.7541 244.338 62.9389 212.477C72.4338 117.494 263.783 34.4819 384.371 53.6497C540.798 58.638 535.568 182.107 535.568 189.462C532.856 282.376 455.198 384.333 362.42 389.049C346.788 389.844 335.469 389.38 333.495 389.38Z" stroke="white" stroke-opacity="0.5" stroke-width="4"/>
<path d="M327.447 358.844C295.125 362.825 267.652 360.395 245.429 355.432C220.831 349.94 131.47 305.856 118.005 284.539C103.336 261.314 92.2577 234.521 95.0092 207.185C102.894 128.846 262.399 68.0399 365.595 84.4258C499.854 88.7027 498.369 163.948 500.883 187.439C498.555 267.107 431.901 354.496 352.351 358.556C338.894 359.243 329.145 358.844 327.447 358.844Z" stroke="white" stroke-opacity="0.5" stroke-width="4"/>
<path d="M322.379 334.746C295.588 338.048 272.814 336.034 254.391 331.92C233.989 327.364 159.89 290.792 148.726 273.107C136.567 253.846 127.386 231.625 129.661 208.957C136.186 143.97 268.443 93.5259 354.009 107.119C465.325 110.666 464.093 173.082 466.178 192.568C464.248 258.649 408.985 331.147 343.001 334.51C331.858 335.077 323.786 334.746 322.379 334.746Z" stroke="white" stroke-opacity="0.5" stroke-width="4"/>
<path d="M316.923 306.855C296.833 309.343 279.748 307.836 265.916 304.745C250.509 301.302 194.725 273.632 186.332 260.253C177.22 245.728 170.341 228.97 172.007 211.901C176.804 162.758 276.329 124.593 340.705 134.869C424.404 137.55 423.478 184.708 425.046 199.431C423.595 249.343 382.047 304.194 332.205 306.687C323.942 307.1 317.971 306.855 316.923 306.855Z" stroke="white" stroke-opacity="0.5" stroke-width="4"/>
<path d="M312.044 277.613C297.165 279.435 284.524 278.313 274.31 276.035C263.08 273.53 222.134 253.45 215.955 243.739C209.197 233.12 204.092 220.87 205.394 208.348C209.108 172.644 282.229 144.947 329.548 152.418C391.154 154.369 390.473 188.697 391.626 199.415C390.558 235.774 359.97 275.579 323.666 277.472C317.391 277.799 312.831 277.613 312.044 277.613Z" stroke="white" stroke-opacity="0.5" stroke-width="4"/>
<path d="M307.713 254.802C298.205 255.951 290.138 255.23 283.632 253.783C276.589 252.215 250.691 239.684 246.77 233.624C242.444 226.94 239.174 219.23 240.058 211.316C242.55 189.008 288.844 171.726 318.819 176.397C357.908 177.619 357.475 199.117 358.207 205.829C357.528 228.62 338.11 253.459 315.356 254.699C311.236 254.924 308.224 254.802 307.713 254.802Z" stroke="white" stroke-opacity="0.5" stroke-width="4"/>
<path d="M303.035 237.052C298.052 237.673 293.813 237.3 290.378 236.532C286.529 235.671 272.635 228.743 270.548 225.394C268.289 221.77 266.585 217.589 266.988 213.337C268.152 201.04 292.929 191.486 308.951 194.056C329.769 194.726 329.539 206.516 329.928 210.197C329.568 222.671 319.235 236.403 306.778 237.014C304.753 237.113 303.293 237.052 303.035 237.052Z" stroke="white" stroke-opacity="0.5" stroke-width="4"/>
<path d="M300.394 221.839C298.995 222.018 297.8 221.915 296.828 221.697C295.699 221.444 291.698 219.389 291.102 218.396C290.471 217.343 289.994 216.127 290.091 214.902C290.377 211.267 297.489 208.434 302.083 209.193C308.031 209.39 307.966 212.858 308.077 213.94C307.974 217.602 305.026 221.674 301.368 221.832C300.838 221.855 300.463 221.839 300.394 221.839Z" stroke="white" stroke-opacity="0.5" stroke-width="4"/>
<path d="M338.183 405.785C295.43 411.056 259.087 407.843 229.684 401.276C197.101 393.999 78.8042 335.581 60.9845 307.332C41.5828 276.576 27.236 241.037 30.8548 204.848C41.643 96.9618 258.998 2.67394 395.976 24.4455C573.664 30.1115 566.745 171.895 567.722 178.708C564.642 284.245 476.429 400.05 371.046 405.409C353.287 406.312 340.426 405.785 338.183 405.785Z" stroke="white" stroke-opacity="0.5" stroke-width="4"/>
</svg>
