<svg width="482" height="261" viewBox="0 0 482 261" fill="none" xmlns="http://www.w3.org/2000/svg">
<path fill-rule="evenodd" clip-rule="evenodd" d="M144.412 39.6395C142.389 39.6395 140.387 40.0367 138.518 40.8085C136.65 41.5803 134.952 42.7115 133.522 44.1376C132.092 45.5637 130.958 47.2567 130.184 49.12C129.41 50.9832 129.012 52.9802 129.012 54.997C129.012 57.0138 129.41 59.0108 130.184 60.8741C130.958 62.7374 132.092 64.4304 133.522 65.8565C134.952 67.2825 136.65 68.4138 138.518 69.1856C140.387 69.9573 142.389 70.3546 144.412 70.3546H159.811V55.3062C159.809 55.1001 159.809 54.894 159.811 54.6879V39.6395H144.412ZM159.811 30.721H144.412C140.327 30.721 136.409 29.1027 133.52 26.222C130.632 23.3414 129.009 19.4344 129.009 15.3605C129.009 11.2867 130.632 7.37965 133.52 4.49899C136.409 1.61834 140.327 0 144.412 0H159.811V30.721ZM168.754 0V30.721H184.154C188.187 30.6419 192.027 28.9888 194.851 26.1168C197.675 23.2447 199.257 19.3828 199.257 15.3605C199.257 11.3382 197.675 7.47631 194.851 4.60427C192.027 1.73223 188.187 0.079124 184.154 0H168.754ZM184.154 39.6335C180.112 39.633 176.231 41.2175 173.35 44.0451C170.469 46.8727 168.818 50.7166 168.754 54.7473V55.2408C168.804 58.2671 169.749 61.2114 171.47 63.7039C173.192 66.1964 175.614 68.1259 178.432 69.25C181.25 70.3742 184.338 70.6429 187.309 70.0225C190.28 69.402 193 67.92 195.129 65.7626C197.257 63.6052 198.699 60.8686 199.274 57.8965C199.848 54.9245 199.529 51.8495 198.356 49.0578C197.183 46.2661 195.21 43.8821 192.683 42.2054C190.156 40.5287 187.189 39.6339 184.154 39.6335ZM144.412 79.273C141.364 79.2718 138.385 80.1719 135.851 81.8593C133.317 83.5468 131.341 85.9458 130.174 88.753C129.007 91.5602 128.702 94.6495 129.295 97.6301C129.889 100.611 131.356 103.349 133.51 105.498C135.664 107.647 138.409 109.111 141.398 109.704C144.387 110.298 147.484 109.994 150.3 108.831C153.115 107.668 155.522 105.699 157.215 103.173C158.908 100.646 159.811 97.6754 159.811 94.6365V79.273H144.412Z" fill="white"/>
<path d="M0 0L8.679 98.032L49.5 110L90.5685 98.0375L99 0H0ZM77.2695 33.264H33.4125L34.3585 44.352H76.692L73.249 80.4595L49.896 88.055L26.3505 80.0525L24.7665 63.9265H35.8985L36.7785 71.687L49.9785 76.1695L62.8815 71.973L64.515 55.4455H24.288L21.197 22.1705H78.463L77.2695 33.264Z" fill="white"/>
<path d="M230 0L238.679 98.087L279.5 110L320.574 98.0925L329 0H230ZM303.15 80.971L279.538 87.593H279.5L255.867 80.971L254.233 63.5525H265.827L266.652 71.9455L279.494 75.46L292.364 71.94L293.712 55.165H253.727L252.698 44.132H294.718L295.675 33.099H251.582L250.614 22.066H308.397L303.15 80.971Z" fill="white"/>
<path d="M420.479 44.1911C426.37 44.1911 431.174 48.995 431.174 55C431.174 60.719 426.37 65.5802 420.479 65.5802C414.589 65.5802 409.785 60.719 409.785 55C409.785 48.995 414.589 44.1911 420.479 44.1911ZM394 100.752C397.603 102.925 405.496 99.6083 414.589 91.0298C411.615 87.6556 408.698 83.9954 405.953 80.1637C401.345 79.7194 396.763 79.0322 392.228 78.1048C389.311 90.3435 390.397 98.7505 394 100.752ZM398.061 67.925L396.402 65.0083C395.773 66.6668 395.144 68.3253 394.744 69.9266C396.288 70.2698 398.004 70.5557 399.777 70.8417L398.061 67.925ZM435.463 63.5785L440.096 55L435.463 46.4215C433.748 43.3904 431.918 40.7024 430.259 38.0145C427.171 37.8429 423.911 37.8429 420.479 37.8429C417.048 37.8429 413.788 37.8429 410.7 38.0145C409.041 40.7024 407.211 43.3904 405.496 46.4215L400.863 55L405.496 63.5785C407.211 66.6096 409.041 69.2975 410.7 71.9855C413.788 72.1571 417.048 72.1571 420.479 72.1571C423.911 72.1571 427.171 72.1571 430.259 71.9855C431.918 69.2975 433.748 66.6096 435.463 63.5785ZM420.479 25.1467C419.393 26.4049 418.249 27.7203 417.105 29.2644H423.854C422.71 27.7203 421.566 26.4049 420.479 25.1467ZM420.479 84.8533C421.566 83.5951 422.71 82.2797 423.854 80.7356H417.105C418.249 82.2797 419.393 83.5951 420.479 84.8533ZM446.901 9.24784C443.356 7.07462 435.463 10.3916 426.37 18.9702C429.344 22.3444 432.261 26.0046 435.006 29.8363C439.695 30.2938 444.328 30.9801 448.731 31.8952C451.648 19.6565 450.562 11.2495 446.901 9.24784ZM442.898 42.075L444.557 44.9917C445.186 43.3332 445.815 41.6747 446.215 40.0734C444.671 39.7302 442.955 39.4443 441.182 39.1583L442.898 42.075ZM451.191 1.75593C459.598 6.5599 460.513 19.1989 456.967 33.954C471.493 38.2433 481.959 45.3349 481.959 55C481.959 64.6651 471.493 71.7567 456.967 76.046C460.513 90.8011 459.598 103.44 451.191 108.244C442.841 113.048 431.46 107.558 420.479 97.092C409.499 107.558 398.118 113.048 389.711 108.244C381.361 103.44 380.446 90.8011 383.992 76.046C369.466 71.7567 359 64.6651 359 55C359 45.3349 369.466 38.2433 383.992 33.954C380.446 19.1989 381.361 6.5599 389.711 1.75593C398.118 -3.04805 409.499 2.44221 420.479 12.908C431.46 2.44221 442.841 -3.04805 451.191 1.75593ZM449.532 55C451.477 59.2893 453.192 63.5785 454.622 67.925C466.632 64.322 473.38 59.1749 473.38 55C473.38 50.8251 466.632 45.678 454.622 42.075C453.192 46.4215 451.477 50.7107 449.532 55ZM391.427 55C389.482 50.7107 387.767 46.4215 386.337 42.075C374.327 45.678 367.579 50.8251 367.579 55C367.579 59.1749 374.327 64.322 386.337 67.925C387.767 63.5785 389.482 59.2893 391.427 55ZM442.898 67.925L441.182 70.8417C442.955 70.5557 444.671 70.2698 446.215 69.9266C445.815 68.3253 445.186 66.6668 444.557 65.0083L442.898 67.925ZM426.37 91.0298C435.463 99.6083 443.356 102.925 446.901 100.752C450.562 98.7505 451.648 90.3435 448.731 78.1048C444.328 79.0199 439.695 79.7062 435.006 80.1637C432.261 83.9954 429.344 87.6556 426.37 91.0298ZM398.061 42.075L399.777 39.1583C398.004 39.4443 396.288 39.7302 394.744 40.0734C395.144 41.6747 395.773 43.3332 396.402 44.9917L398.061 42.075ZM414.589 18.9702C405.496 10.3916 397.603 7.07462 394 9.24784C390.397 11.2495 389.311 19.6565 392.228 31.8952C396.763 30.9678 401.345 30.2806 405.953 29.8363C408.698 26.0046 411.615 22.3444 414.589 18.9702Z" fill="white"/>
<path d="M63.1562 151C60.3008 151 58 153.301 58 156.156V255.844C58 258.699 60.3008 261 63.1562 261H162.844C165.699 261 168 258.699 168 255.844V156.156C168 153.301 165.699 151 162.844 151H63.1562ZM142.737 195.688C145.542 195.688 148.027 195.857 150.194 196.196C152.238 196.503 154.245 197.026 156.18 197.755V209.02C155.25 208.379 154.264 207.825 153.233 207.366C152.169 206.886 151.07 206.487 149.946 206.174C147.817 205.584 145.62 205.275 143.41 205.258C142.035 205.258 140.784 205.389 139.657 205.652C138.652 205.867 137.688 206.241 136.801 206.761C136.025 207.238 135.425 207.809 135 208.475C134.574 209.146 134.351 209.926 134.358 210.721C134.358 211.619 134.597 212.427 135.073 213.145C135.55 213.86 136.227 214.539 137.104 215.18C138.419 216.143 139.043 216.445 140.294 217.06C141.547 217.68 142.961 218.315 144.538 218.966C146.692 219.871 148.626 220.83 150.34 221.845C152.055 222.862 153.526 224.012 154.754 225.296C155.983 226.573 156.921 228.035 157.568 229.682C158.219 231.326 158.546 233.24 158.549 235.425C158.549 238.438 157.979 240.968 156.84 243.015C155.734 245.035 154.139 246.745 152.201 247.988C150.116 249.308 147.806 250.234 145.386 250.72C142.789 251.27 140.054 251.545 137.182 251.545C134.353 251.555 131.53 251.303 128.748 250.793C126.341 250.379 124.007 249.618 121.818 248.533V236.479C125.96 240.005 131.215 241.953 136.655 241.979C138.182 241.979 139.515 241.842 140.651 241.567C141.791 241.292 142.743 240.91 143.507 240.421C144.268 239.926 144.837 239.345 145.216 238.679C145.638 237.901 145.831 237.018 145.77 236.134C145.71 235.251 145.401 234.402 144.877 233.688C144.198 232.786 143.364 232.01 142.416 231.396C141.241 230.618 140.004 229.937 138.717 229.361C137.192 228.665 135.653 227.999 134.102 227.363C129.894 225.606 126.758 223.459 124.692 220.923C122.627 218.387 121.594 215.324 121.594 211.734C121.594 208.923 122.158 206.506 123.285 204.483C124.409 202.46 125.943 200.796 127.887 199.492C129.942 198.136 132.224 197.16 134.624 196.609C137.282 195.98 140.006 195.671 142.737 195.688ZM73.4688 196.549H117.299V206.477H101.569V250.688H89.1163V206.477H73.4688V196.549Z" fill="white"/>
<path d="M247.189 140C253.121 154.001 225.918 162.578 223.388 174.248C221.073 184.957 239.505 197.52 239.521 197.52C236.708 193.09 234.66 189.354 231.85 182.444C227.09 170.774 260.856 160.247 247.189 140ZM265.171 159.438C265.171 159.438 241.387 160.941 240.182 176.495C239.632 183.421 246.461 187.056 246.66 192.1C246.829 196.212 242.56 199.631 242.56 199.631C242.56 199.631 250.214 198.248 252.609 191.964C255.253 184.991 247.455 180.231 248.246 174.641C249.008 169.306 265.171 159.438 265.171 159.438ZM270.989 195.269C268.493 195.155 265.683 196.081 263.187 197.913C268.112 196.826 272.314 199.915 272.314 203.469C272.314 211.437 260.94 218.939 260.94 218.939C260.94 218.939 278.525 216.971 278.525 203.867C278.525 198.459 275.14 195.468 270.989 195.269ZM224.314 195.404C218.179 195.616 205.934 196.627 205.934 201.353C205.934 207.933 234.461 208.445 254.86 204.396C254.86 204.396 260.411 200.528 261.867 199.107C248.496 201.882 217.967 202.314 217.967 199.898C217.967 197.685 227.75 195.404 227.75 195.404C227.75 195.404 226.362 195.337 224.314 195.404ZM222.461 207.569C219.106 207.569 214.13 210.18 214.13 212.723C214.13 217.847 239.39 221.782 258.033 214.31L251.551 210.345C238.908 214.479 215.551 213.104 222.461 207.569ZM225.634 219.07C221.056 219.07 218.099 221.964 218.099 224.097C218.099 230.655 245.454 231.302 256.311 224.626L249.435 220.128C241.337 223.618 220.959 224.13 225.634 219.07ZM210.296 225.023C202.828 224.875 198 228.26 198 231.099C198 246.222 274.561 245.498 274.561 230.042C274.561 227.482 271.535 226.259 270.461 225.679C276.71 240.455 207.918 239.3 207.918 230.57C207.918 228.59 213.008 226.606 217.701 227.532L213.736 225.281C212.597 225.116 211.447 225.032 210.296 225.023ZM282.626 235.204C270.989 246.459 241.54 250.491 211.883 243.535C241.536 255.933 282.477 249.036 282.626 235.204Z" fill="white"/>
<mask id="mask0_96_13" style="mask-type:luminance" maskUnits="userSpaceOnUse" x="313" y="140" width="110" height="110">
<path d="M313 140H423V250H313V140Z" fill="white"/>
</mask>
<g mask="url(#mask0_96_13)">
<path fill-rule="evenodd" clip-rule="evenodd" d="M313 140H423V250H313V140ZM397.09 232.217C391.989 232.217 389.106 229.558 386.893 225.938L378.491 230.819C381.525 236.814 387.727 241.388 397.329 241.388C407.146 241.388 414.457 236.291 414.457 226.983C414.457 218.352 409.498 214.516 400.716 210.744L398.131 209.639C393.694 207.714 391.774 206.463 391.774 203.36C391.774 200.853 393.699 198.933 396.724 198.933C399.689 198.933 401.6 200.184 403.374 203.36L411.423 198.195C408.017 192.204 403.296 189.917 396.724 189.917C387.493 189.917 381.585 195.82 381.585 203.575C381.585 211.986 386.535 215.969 393.997 219.145L396.582 220.254C401.298 222.317 404.108 223.573 404.108 227.115C404.108 230.076 401.371 232.217 397.09 232.217ZM357.032 232.148C353.48 232.148 352 229.719 350.377 226.831L341.962 231.928C344.4 237.089 349.195 241.37 357.467 241.37C366.63 241.37 372.904 236.498 372.904 225.795V190.504H362.569V225.658C362.569 230.823 360.424 232.148 357.028 232.148" fill="white"/>
</g>
</svg>
