<svg width="38" height="54" viewBox="0 0 38 54" fill="none" xmlns="http://www.w3.org/2000/svg">
<path d="M1.33471 6.76475L0.0292056 52.7342C0.0132117 53.2974 0.468362 53.764 1.03161 53.751C10.1155 53.5399 11.002 50.5111 11.1488 48.145C11.3058 45.6132 11.3843 38.967 11.3843 37.9384C10.8347 34.5362 8.16529 34.1406 8.16529 33.9033C7.6 33.6501 5.10331 33.0066 3.92562 32.7164C5.65289 32.5582 9.12314 32.2417 9.18595 32.2417C11.2273 32.0044 11.9339 30.1055 11.9339 28.523V6.76475C12.1171 13.9911 12.5215 27.8901 12.562 28.523C12.719 30.9758 14.9174 32.1626 16.1736 32.2417H20.8058C19.8375 32.4791 18.3719 32.8747 17.9008 33.0329C14.8388 33.9033 13.6088 36.5143 13.5041 37.9384C13.5041 41.1824 13.9752 46.4835 14.2893 48.145C15.4669 53.2879 17.5083 53.4462 18.6074 53.7626C19.9422 54.0791 29.8528 54.0791 31.6405 53.7626C36.2884 52.9398 37.8168 49.1473 38 47.1956C37.7844 32.8069 37.6346 5.71096 37.5505 0.864586C37.5427 0.414268 37.2168 0.0835871 36.7676 0.0517639C28.2849 -0.549107 25.9854 4.22806 25.9091 6.76475L26.1446 16.6549C26.4587 20.1362 28.343 21.6659 29.6777 22.1142L33.9959 23.2219C32.3733 23.301 29.1124 23.4751 29.0496 23.5384C26.9141 23.5384 26.3802 26.334 26.3802 27.7318V46.8L24.9669 27.7318C25.1554 24.2505 22.8471 23.2747 21.6694 23.2219H16.6446C18.1625 22.6417 19.7851 22.3516 21.2769 21.6395C24.1033 20.1362 23.7631 18.5274 23.5537 16.6549C23.2658 13.3582 23.0996 7.95157 23.0041 6.76475C22.6273 2.08079 18.1364 0.646059 15.938 0.514192C13.5565 0.487819 8.79339 0.450895 8.79339 0.514192C3.01488 0.893973 1.41322 4.83947 1.33471 6.76475Z" fill="#FFE6C9"/>
</svg>
