<svg width="45" height="46" viewBox="0 0 45 46" fill="none" xmlns="http://www.w3.org/2000/svg">
<path d="M22.4999 1.25C19.5899 1.25 16.7085 1.82316 14.02 2.93676C11.3315 4.05036 8.88873 5.68259 6.83107 7.74025C2.67543 11.8959 0.34082 17.5321 0.34082 23.4091C0.34082 33.2034 6.70048 41.5131 15.4976 44.4602C16.6056 44.6375 16.9601 43.9506 16.9601 43.3523V39.6074C10.8221 40.9369 9.51469 36.6381 9.51469 36.6381C8.49537 34.0676 7.05503 33.3807 7.05503 33.3807C5.03855 32.0068 7.21014 32.0511 7.21014 32.0511C9.42605 32.2063 10.6005 34.3335 10.6005 34.3335C12.5283 37.7017 15.7857 36.7045 17.0488 36.1727C17.2482 34.7324 17.8243 33.7574 18.4448 33.2034C13.5255 32.6494 8.36241 30.7438 8.36241 22.3011C8.36241 19.8415 9.20446 17.8693 10.6448 16.296C10.4232 15.742 9.64764 13.4375 10.8664 10.446C10.8664 10.446 12.7278 9.84773 16.9601 12.7063C18.7107 12.2188 20.6164 11.975 22.4999 11.975C24.3834 11.975 26.2891 12.2188 28.0397 12.7063C32.2721 9.84773 34.1334 10.446 34.1334 10.446C35.3522 13.4375 34.5766 15.742 34.355 16.296C35.7954 17.8693 36.6374 19.8415 36.6374 22.3011C36.6374 30.7659 31.4522 32.6273 26.5107 33.1813C27.3084 33.8682 28.0397 35.2199 28.0397 37.2807V43.3523C28.0397 43.9506 28.3942 44.6597 29.5243 44.4602C38.3215 41.4909 44.659 33.2034 44.659 23.4091C44.659 20.4991 44.0858 17.6176 42.9723 14.9292C41.8587 12.2407 40.2264 9.79791 38.1688 7.74025C36.1111 5.68259 33.6683 4.05036 30.9798 2.93676C28.2914 1.82316 25.4099 1.25 22.4999 1.25Z" fill="white"/>
</svg>
