<svg width="40" height="40" viewBox="0 0 40 40" fill="none" xmlns="http://www.w3.org/2000/svg">
<g clip-path="url(#clip0_42_28)">
<path d="M35.4762 0.102051C36.6489 0.102051 37.7736 0.567914 38.6029 1.39716C39.4321 2.2264 39.898 3.35109 39.898 4.52382V35.4762C39.898 36.6489 39.4321 37.7736 38.6029 38.6029C37.7736 39.4321 36.6489 39.898 35.4762 39.898H4.52382C3.35109 39.898 2.2264 39.4321 1.39716 38.6029C0.567914 37.7736 0.102051 36.6489 0.102051 35.4762V4.52382C0.102051 3.35109 0.567914 2.2264 1.39716 1.39716C2.2264 0.567914 3.35109 0.102051 4.52382 0.102051H35.4762ZM34.3708 34.3708V22.6531C34.3708 20.7415 33.6114 18.9083 32.2597 17.5566C30.9081 16.2049 29.0748 15.4456 27.1633 15.4456C25.284 15.4456 23.0952 16.5952 22.034 18.3197V15.8657H15.8657V34.3708H22.034V23.4711C22.034 21.7687 23.4048 20.3759 25.1072 20.3759C25.9281 20.3759 26.7153 20.702 27.2958 21.2824C27.8763 21.8629 28.2024 22.6502 28.2024 23.4711V34.3708H34.3708ZM8.68028 12.3946C9.66537 12.3946 10.6101 12.0032 11.3067 11.3067C12.0032 10.6101 12.3946 9.66537 12.3946 8.68028C12.3946 6.62416 10.7364 4.94389 8.68028 4.94389C7.68933 4.94389 6.73896 5.33754 6.03825 6.03825C5.33754 6.73896 4.94389 7.68933 4.94389 8.68028C4.94389 10.7364 6.62416 12.3946 8.68028 12.3946ZM11.7534 34.3708V15.8657H5.62926V34.3708H11.7534Z" fill="white"/>
</g>
<defs>
<clipPath id="clip0_42_28">
<rect width="40" height="40" fill="white"/>
</clipPath>
</defs>
</svg>
