<svg width="21" height="20" viewBox="0 0 21 20" fill="none" xmlns="http://www.w3.org/2000/svg">
<path d="M7.01636 15.25V16.257C7.0164 16.6511 6.9388 17.0414 6.78798 17.4055C6.63716 17.7696 6.41607 18.1004 6.13736 18.379L5.51636 19H14.5164L13.8954 18.379C13.6166 18.1004 13.3956 17.7696 13.2447 17.4055C13.0939 17.0414 13.0163 16.6511 13.0164 16.257V15.25M19.0164 3.25V13C19.0164 13.5967 18.7793 14.169 18.3573 14.591C17.9354 15.0129 17.3631 15.25 16.7664 15.25H3.26636C2.66962 15.25 2.09732 15.0129 1.67537 14.591C1.25341 14.169 1.01636 13.5967 1.01636 13V3.25M19.0164 3.25C19.0164 2.65326 18.7793 2.08097 18.3573 1.65901C17.9354 1.23705 17.3631 1 16.7664 1H3.26636C2.66962 1 2.09732 1.23705 1.67537 1.65901C1.25341 2.08097 1.01636 2.65326 1.01636 3.25M19.0164 3.25V10C19.0164 10.5967 18.7793 11.169 18.3573 11.591C17.9354 12.0129 17.3631 12.25 16.7664 12.25H3.26636C2.66962 12.25 2.09732 12.0129 1.67537 11.591C1.25341 11.169 1.01636 10.5967 1.01636 10V3.25" stroke="#FF577F" stroke-width="2" stroke-linecap="round" stroke-linejoin="round"/>
</svg>
