<svg width="72" height="176" viewBox="0 0 72 176" fill="none" xmlns="http://www.w3.org/2000/svg">
<path d="M2 0C0.895431 -4.76837e-07 4.76837e-07 0.89543 0 2C-4.76837e-07 3.10457 0.89543 4 2 4L2 0ZM37.5 82.5L35.9066 83.7088L37.5 82.5ZM69 97L67.0058 97.1519L69 97ZM11.6294 166.792C11.2385 167.825 11.7591 168.98 12.7922 169.371L29.6274 175.741C30.6605 176.132 31.8148 175.611 32.2057 174.578C32.5966 173.545 32.076 172.39 31.0429 171.999L16.0784 166.337L21.7406 151.373C22.1315 150.34 21.6109 149.185 20.5778 148.794C19.5448 148.403 18.3904 148.924 17.9995 149.957L11.6294 166.792ZM2 4C8.94285 4 14.7316 4.07866 19.7807 4.65542L20.2347 0.681263C14.9293 0.0752281 8.92628 2.74181e-06 2 0L2 4ZM49.1804 65.3917C47.5407 72.1515 45.3241 77.4513 43.1408 80.2979C42.0221 81.7565 41.1641 82.2409 40.6869 82.3245C40.4438 82.3671 39.9221 82.3836 39.0934 81.2912L35.9066 83.7088C37.2951 85.5391 39.1693 86.6511 41.3768 86.2646C43.3501 85.919 44.9974 84.4497 46.3147 82.7323C49.0034 79.2268 51.3816 73.2855 53.0677 66.3346L49.1804 65.3917ZM39.0934 81.2912C37.8997 79.7177 37.5626 78.4935 37.5886 77.6319C37.6134 76.8123 37.9724 76.064 38.7388 75.3906C40.3766 73.9514 43.7423 73.0402 47.8901 73.6006C55.9201 74.6855 65.7908 81.2049 67.0058 97.1519L70.9942 96.8481C69.6302 78.9447 58.2509 70.9641 48.4256 69.6366C43.6458 68.9908 38.9326 69.8953 36.0984 72.3859C34.6287 73.6773 33.6535 75.4225 33.5904 77.5112C33.5287 79.5581 34.3503 81.6573 35.9066 83.7088L39.0934 81.2912ZM67.0058 97.1519C70.8769 147.96 21.743 161.589 12.6778 165.677L14.3222 169.323C22.257 165.745 75.1231 151.04 70.9942 96.8481L67.0058 97.1519ZM19.7807 4.65542C32.3013 6.08563 41.1715 14.6685 46.1962 26.3507C51.2321 38.0588 52.2723 52.6453 49.1804 65.3917L53.0677 66.3346C56.3515 52.7973 55.2691 37.3212 49.8707 24.7702C44.4611 12.1932 34.5852 2.32051 20.2347 0.681263L19.7807 4.65542Z" fill="white"/>
</svg>
